<svg xmlns="http://www.w3.org/2000/svg" viewBox="0 0 114.96 36.8"><defs><style>.cls-1{fill:#c6b7be;}</style></defs><g id="Ebene_2" data-name="Ebene 2"><g id="Ebene_1-2" data-name="Ebene 1"><path class="cls-1" d="M7.86,16.8h-4a1.41,1.41,0,0,1-.91-.28.94.94,0,0,1-.41-.63L0,.6V.53A.44.44,0,0,1,.19.16.63.63,0,0,1,.63,0h5a1.46,1.46,0,0,1,.93.29A1.08,1.08,0,0,1,6.94,1l.92,7.34L9.53,4.54A1.06,1.06,0,0,1,10,4.07a1.47,1.47,0,0,1,.85-.23h2a1.49,1.49,0,0,1,.85.23,1.06,1.06,0,0,1,.42.47L15.7,8.35,16.62,1A1,1,0,0,1,17,.29,1.44,1.44,0,0,1,18,0h5a.64.64,0,0,1,.45.16.44.44,0,0,1,.19.37V.6L21.05,15.89a1,1,0,0,1-.42.63,1.4,1.4,0,0,1-.9.28h-4a1.47,1.47,0,0,1-.85-.22,1,1,0,0,1-.42-.43l-2.65-5.06L9.13,16.15a1,1,0,0,1-.42.43A1.47,1.47,0,0,1,7.86,16.8Z"/><path class="cls-1" d="M38.16,0h5.61a.72.72,0,0,1,.51.19.58.58,0,0,1,.22.46v15.5a.58.58,0,0,1-.22.46.72.72,0,0,1-.51.19H38.16a.76.76,0,0,1-.52-.19.6.6,0,0,1-.21-.46V11H32v5.11a.58.58,0,0,1-.22.46.72.72,0,0,1-.51.19H25.64a.8.8,0,0,1-.52-.18.59.59,0,0,1-.21-.47V.65a.6.6,0,0,1,.21-.46A.76.76,0,0,1,25.64,0h5.61a.72.72,0,0,1,.51.19A.58.58,0,0,1,32,.65V5.57h5.45V.65a.6.6,0,0,1,.21-.46A.76.76,0,0,1,38.16,0Z"/><path class="cls-1" d="M66.87,4.92H61.66v7h5.21a.82.82,0,0,1,.55.19.59.59,0,0,1,.23.46v3.62a.59.59,0,0,1-.23.46.82.82,0,0,1-.55.19H48.61a.79.79,0,0,1-.54-.19.56.56,0,0,1-.23-.46V12.53a.56.56,0,0,1,.23-.46.79.79,0,0,1,.54-.19h5.27v-7H48.61a.79.79,0,0,1-.54-.19.56.56,0,0,1-.23-.46V.65a.56.56,0,0,1,.23-.46A.79.79,0,0,1,48.61,0H66.87a.82.82,0,0,1,.55.19.59.59,0,0,1,.23.46V4.27a.59.59,0,0,1-.23.46A.82.82,0,0,1,66.87,4.92Z"/><path class="cls-1" d="M70.85,0H90.72a.84.84,0,0,1,.55.19.59.59,0,0,1,.23.46V4.51a.59.59,0,0,1-.23.46.84.84,0,0,1-.55.19H84.53v11a.59.59,0,0,1-.23.46.84.84,0,0,1-.55.19H77.82a.82.82,0,0,1-.55-.19.59.59,0,0,1-.23-.46v-11H70.85A.82.82,0,0,1,70.3,5a.59.59,0,0,1-.23-.46V.65A.59.59,0,0,1,70.3.19.82.82,0,0,1,70.85,0Z"/><path class="cls-1" d="M101.66,12.12h11.49a.8.8,0,0,1,.55.19.59.59,0,0,1,.23.46v3.38a.59.59,0,0,1-.23.46.8.8,0,0,1-.55.19H95a.79.79,0,0,1-.54-.19.57.57,0,0,1-.24-.46V.65a.57.57,0,0,1,.24-.46A.79.79,0,0,1,95,0h17.92a.79.79,0,0,1,.54.19.56.56,0,0,1,.23.46V4a.56.56,0,0,1-.23.46.79.79,0,0,1-.54.19H101.66V6.19h9.62a.87.87,0,0,1,.55.19.59.59,0,0,1,.23.46V10a.59.59,0,0,1-.23.46.87.87,0,0,1-.55.19h-9.62Z"/><path class="cls-1" d="M9.31,27v-.86A1.14,1.14,0,0,1,10.44,25h12.9A5.13,5.13,0,0,0,21,21.66,11.13,11.13,0,0,0,14.57,20H3.79a.79.79,0,0,0-.54.19.56.56,0,0,0-.23.46v15.5a.56.56,0,0,0,.23.46.79.79,0,0,0,.54.19H10a.79.79,0,0,0,.54-.19.56.56,0,0,0,.23-.46V31.54h3.81c3.22,0,5.5-.5,6.85-1.52A4.85,4.85,0,0,0,23,28.08H10.44A1.13,1.13,0,0,1,9.31,27Z"/><path class="cls-1" d="M36.32,30.35H33.19V28.08H26.47l-3.29,8.05a.58.58,0,0,0,0,.21.41.41,0,0,0,.18.3.67.67,0,0,0,.45.16h5.44a1.31,1.31,0,0,0,1.3-.82l.72-1.68h7L39,36a1.31,1.31,0,0,0,1.29.82h5.45a.63.63,0,0,0,.44-.16.4.4,0,0,0,.19-.3.58.58,0,0,0,0-.21L43,28.08H36.32Z"/><path class="cls-1" d="M33.19,22.69h3.13V25h5.44l-1.71-4.16A1.18,1.18,0,0,0,38.76,20h-8a1.2,1.2,0,0,0-1.3.79L27.75,25h5.44Z"/><path class="cls-1" d="M66.32,21.56A11,11,0,0,0,60.07,20H48.86a.79.79,0,0,0-.54.19.56.56,0,0,0-.23.46V25H68.55A4.87,4.87,0,0,0,66.32,21.56Z"/><path class="cls-1" d="M48.09,36.15a.56.56,0,0,0,.23.46.79.79,0,0,0,.54.19h6.23a.79.79,0,0,0,.54-.19.56.56,0,0,0,.23-.46v-4.7h2.42l2.54,4.75a1.27,1.27,0,0,0,1.21.6h6.53a.64.64,0,0,0,.45-.16.41.41,0,0,0,.19-.32.48.48,0,0,0-.06-.26L65.6,30.54a5.18,5.18,0,0,0,2.55-2.46H48.09Z"/><path class="cls-1" d="M88.64,30.54a4.93,4.93,0,0,0,3-4.73,4.89,4.89,0,0,0-2.3-4.25A11,11,0,0,0,83.11,20H71.9a.79.79,0,0,0-.54.19.56.56,0,0,0-.23.46V25H83.07a1.14,1.14,0,0,1,1.13,1.14V27a1.13,1.13,0,0,1-1.13,1.13H71.13v8.07a.56.56,0,0,0,.23.46.79.79,0,0,0,.54.19h6.23a.79.79,0,0,0,.54-.19.56.56,0,0,0,.23-.46v-4.7h2.42l2.54,4.75a1.27,1.27,0,0,0,1.21.6H91.6a.64.64,0,0,0,.45-.16.41.41,0,0,0,.19-.32.48.48,0,0,0-.06-.26Z"/><path class="cls-1" d="M114.77,20.16a.63.63,0,0,0-.44-.16h-6a1.41,1.41,0,0,0-1.21.6l-3.34,4.7-3.26-4.75A1.32,1.32,0,0,0,99.32,20H93.25a.64.64,0,0,0-.45.16.41.41,0,0,0-.19.32.56.56,0,0,0,.09.31l7.23,10v5.35a.56.56,0,0,0,.23.46.79.79,0,0,0,.54.19h6.14a.84.84,0,0,0,.55-.19.59.59,0,0,0,.23-.46V30.8l7.25-10a.56.56,0,0,0,.09-.31A.41.41,0,0,0,114.77,20.16Z"/></g></g></svg>